<?xml version="1.0" standalone="no"?>
<!DOCTYPE svg PUBLIC "-//W3C//DTD SVG 20010904//EN"
 "http://www.w3.org/TR/2001/REC-SVG-20010904/DTD/svg10.dtd">
<svg version="1.0" xmlns="http://www.w3.org/2000/svg"
 width="1000.000000pt" height="626.000000pt" viewBox="0 0 1000.000000 626.000000"
 preserveAspectRatio="xMidYMid meet">

<g transform="translate(0.000000,626.000000) scale(0.100000,-0.100000)"
fill="#000000" stroke="none">
<path d="M1812 6209 c-20 -6 -40 -22 -52 -42 -20 -31 -20 -59 -20 -1319 l0
-1288 29 -32 29 -33 1272 0 1272 0 29 33 29 32 0 1288 c0 1257 -1 1288 -20
1319 -13 21 -31 35 -57 42 -49 14 -2463 13 -2511 0z m2540 -38 l33 -29 4 -131
3 -131 -554 0 c-552 0 -555 0 -574 21 -10 12 -37 31 -59 42 -75 39 -236 21
-344 -39 l-44 -24 -528 0 -529 0 0 134 0 134 31 26 31 26 1249 0 1249 0 32
-29z m-1185 -236 c27 -8 58 -24 68 -35 18 -20 18 -20 -176 -20 l-194 1 39 20
c35 19 143 46 192 48 11 1 43 -6 71 -14z m-400 -105 c-58 -68 -73 -182 -33
-257 15 -30 15 -30 -40 -84 -65 -64 -122 -170 -130 -245 -9 -75 17 -155 67
-205 l40 -40 -28 -22 c-54 -42 -94 -93 -128 -162 -102 -207 -109 -498 -24
-960 37 -198 60 -285 75 -285 9 0 14 -11 14 -30 l0 -30 -385 0 -386 0 -24 25
-25 24 0 1151 0 1150 516 0 516 0 -25 -30z m517 21 c3 -4 -31 -11 -76 -14 -66
-4 -94 -12 -154 -41 -78 -39 -170 -116 -204 -171 -12 -19 -35 -44 -51 -56
l-29 -21 -20 44 c-37 81 -20 170 42 236 l32 32 227 0 c125 0 230 -4 233 -9z
m1103 -501 c2 -278 -1 -510 -5 -516 -14 -21 -193 -116 -274 -146 -106 -38
-211 -47 -291 -24 -54 16 -56 18 -51 45 5 25 0 32 -59 74 -36 26 -115 94 -176
152 -62 58 -116 105 -121 105 -6 0 -10 17 -10 38 0 22 -7 61 -15 88 -12 40
-13 61 -3 113 6 36 8 114 6 178 l-5 114 32 32 c44 44 62 105 45 147 -12 29
-67 64 -132 84 -10 3 -18 10 -18 16 0 7 170 9 538 8 l537 -3 2 -505z m-1040
455 c27 -8 62 -26 78 -41 23 -21 27 -31 22 -61 -3 -19 -18 -51 -33 -70 l-27
-35 -13 30 c-21 52 -55 66 -168 70 -103 4 -172 -11 -288 -62 -21 -9 -38 -12
-38 -7 0 5 25 32 56 61 123 112 276 155 411 115z m-49 -136 c47 -16 64 -69 70
-219 8 -203 -19 -283 -111 -329 -39 -19 -65 -24 -131 -24 -71 -1 -91 3 -139
27 -85 41 -125 99 -151 217 -3 16 -17 30 -38 40 -30 13 -33 18 -33 59 0 39 3
46 27 54 21 7 35 5 63 -10 l37 -19 20 25 c11 14 35 55 54 91 31 63 35 67 86
82 62 18 201 22 246 6z m-168 -589 l88 0 12 -52 c12 -49 12 -52 -11 -71 -20
-16 -35 -18 -86 -14 -67 5 -115 27 -145 67 -16 21 -17 31 -7 57 9 29 13 31 35
22 14 -5 65 -9 114 -9z m1258 -462 l-3 -183 -103 -43 c-57 -24 -147 -55 -200
-68 -83 -22 -113 -25 -212 -21 -63 2 -133 10 -155 18 -36 13 -41 18 -49 60 -8
43 -5 55 39 160 26 63 49 115 50 117 1 1 28 -4 61 -13 136 -35 287 0 482 111
42 24 80 44 85 44 4 0 6 -82 5 -182z m-1098 79 c0 -8 -7 -36 -15 -63 -22 -72
-21 -74 30 -74 32 0 45 -4 45 -14 0 -7 -34 -81 -75 -162 l-75 -149 4 108 4
107 -50 0 -50 0 6 98 c4 53 9 112 12 130 l5 32 79 0 c60 0 80 -3 80 -13z
m1100 -684 c0 -243 -4 -412 -10 -435 -19 -68 -19 -68 -362 -68 -170 0 -308 3
-308 8 0 4 -3 17 -6 30 -5 19 -2 22 21 22 25 0 26 2 21 38 -14 88 -27 254 -22
267 7 19 26 20 26 1 0 -7 7 -19 15 -26 16 -13 36 -8 85 21 8 5 25 13 38 19 25
11 42 47 42 91 0 26 3 29 34 29 19 0 43 8 55 18 20 15 20 19 7 38 -8 12 -37
27 -63 34 -26 8 -62 22 -80 33 -19 11 -64 22 -107 26 -41 4 -78 10 -82 14 -8
7 -25 129 -20 135 2 1 34 -5 72 -14 147 -34 343 -6 539 79 44 19 86 35 93 36
9 1 12 -85 12 -396z m-1519 266 c29 -107 81 -118 564 -129 395 -8 429 -13 453
-63 19 -40 27 -129 13 -155 -18 -34 -31 -26 -32 21 0 23 -4 51 -9 62 -6 14 -8
-1 -8 -47 0 -36 -3 -71 -7 -77 -12 -20 -25 -11 -25 17 -1 15 -7 41 -14 57 -13
29 -14 27 -12 -34 1 -76 -14 -88 -34 -29 -8 23 -22 44 -30 46 -12 4 -13 2 -2
-9 6 -7 12 -17 12 -21 0 -17 -57 -30 -145 -34 -49 -3 -130 -11 -180 -20 -128
-21 -391 -29 -499 -15 -145 20 -236 53 -299 111 -76 70 -132 181 -160 316 -4
21 0 22 117 29 66 3 148 10 181 15 107 13 101 16 116 -41z m1122 -211 c29 -15
14 -33 -28 -33 -34 0 -39 3 -46 28 -7 28 -7 28 24 21 18 -3 40 -11 50 -16z"/>
<path d="M1902 6088 c-46 -23 -36 -92 15 -104 21 -6 31 -2 49 19 26 30 22 60
-9 82 -25 17 -25 17 -55 3z"/>
<path d="M2062 6084 c-32 -22 -30 -69 4 -91 24 -15 29 -15 53 -2 29 16 41 69
19 86 -25 20 -54 23 -76 7z m56 -16 c7 -7 12 -22 12 -35 0 -31 -47 -44 -67
-18 -17 24 -16 30 3 49 19 19 36 20 52 4z"/>
<path d="M2224 6075 c-18 -19 -23 -31 -19 -48 15 -47 61 -61 95 -27 26 26 25
46 -5 75 -30 31 -40 31 -71 0z m66 -10 c26 -32 -13 -81 -47 -59 -35 22 -23 74
17 74 10 0 23 -7 30 -15z"/>
<path d="M3225 5520 c-4 -6 8 -10 29 -10 20 0 36 5 36 10 0 6 -13 10 -29 10
-17 0 -33 -4 -36 -10z"/>
<path d="M2988 5503 c-32 -8 -20 -26 13 -19 17 3 36 6 41 6 5 0 6 5 3 10 -6
10 -26 11 -57 3z"/>
<path d="M3232 5464 c-12 -8 -22 -20 -22 -26 0 -7 6 -6 15 2 9 8 29 10 50 7
38 -6 47 6 16 23 -26 13 -33 13 -59 -6z"/>
<path d="M2795 5459 c-10 -15 3 -25 16 -12 7 7 7 13 1 17 -6 3 -14 1 -17 -5z"/>
<path d="M3161 5411 c-1 -28 5 -51 15 -62 18 -20 11 -39 -14 -39 -11 0 -13 -3
-5 -11 8 -8 17 -8 32 0 25 14 27 43 6 61 -8 7 -15 22 -16 34 0 11 -4 30 -9 41
-7 15 -9 10 -9 -24z"/>
<path d="M3016 5425 c-9 -9 -16 -24 -16 -33 0 -13 4 -11 16 7 12 16 23 22 41
18 15 -3 22 0 20 7 -6 18 -43 18 -61 1z"/>
<path d="M3185 5265 c-5 -2 -31 -6 -57 -10 -57 -7 -64 -31 -22 -64 57 -45 154
-13 154 50 0 26 -3 29 -32 28 -18 0 -37 -2 -43 -4z m65 -24 c0 -50 -90 -68
-137 -27 l-28 24 40 7 c22 3 47 8 55 10 46 9 70 5 70 -14z"/>
<path d="M5155 5013 c-46 -24 -76 -54 -96 -98 -16 -35 -19 -68 -19 -268 0
-183 3 -235 15 -265 21 -49 52 -81 100 -103 37 -17 75 -19 520 -19 l480 0 135
-115 c74 -63 138 -115 143 -115 12 0 8 809 -4 855 -15 56 -54 104 -103 126
-38 17 -75 19 -591 18 -482 0 -554 -2 -580 -16z m1170 -21 c22 -13 52 -39 65
-59 l25 -37 3 -420 c3 -402 2 -419 -15 -404 -10 8 -69 58 -132 111 l-114 97
-485 0 -485 0 -41 24 c-23 13 -51 42 -64 64 -21 38 -22 50 -22 277 0 199 3
243 16 272 21 43 68 80 120 92 22 5 263 9 564 8 l525 -2 40 -23z"/>
<path d="M5297 4793 c-4 -3 -7 -15 -7 -25 0 -17 19 -18 468 -16 459 3 467 3
467 23 0 20 -8 20 -461 23 -253 1 -464 -1 -467 -5z"/>
<path d="M5297 4653 c-4 -3 -7 -15 -7 -25 0 -17 16 -18 373 -16 364 3 372 3
372 23 0 20 -8 20 -366 23 -201 1 -368 -1 -372 -5z"/>
<path d="M5297 4513 c-4 -3 -7 -15 -7 -25 0 -17 12 -18 189 -18 105 0 192 4
195 9 4 5 3 16 0 25 -5 14 -31 16 -188 16 -101 0 -186 -3 -189 -7z"/>
<path d="M7317 4186 c-46 -25 -52 -26 -105 -15 -103 20 -175 -25 -174 -109 0
-22 7 -54 16 -70 14 -27 74 -86 110 -107 14 -9 15 -17 6 -65 -6 -31 -11 -146
-13 -257 l-2 -200 -55 -29 c-72 -37 -148 -115 -183 -186 -15 -31 -27 -61 -27
-66 0 -4 26 -6 58 -4 47 3 62 0 85 -18 l27 -21 0 -353 c0 -302 -2 -355 -16
-374 -14 -21 -22 -22 -134 -22 l-119 0 -3 -97 -3 -98 -190 -6 c-200 -5 -230
-12 -315 -64 -113 -71 -158 -159 -199 -390 -42 -232 -102 -618 -146 -925 -19
-140 -38 -267 -41 -283 -5 -23 -2 -27 18 -27 44 0 51 -13 45 -79 -3 -34 -1
-61 4 -61 5 0 9 19 9 43 0 23 3 53 7 66 6 23 8 24 82 18 42 -3 102 -3 134 0
54 5 58 8 64 34 3 16 10 29 14 29 5 0 6 -12 3 -26 -4 -17 -2 -29 6 -34 11 -7
11 -16 1 -52 -7 -24 -15 -51 -17 -60 -3 -10 -1 -18 4 -18 5 0 17 28 27 63 9
34 22 65 29 69 16 11 76 10 76 -2 0 -12 -82 -313 -87 -319 -2 -3 -9 1 -15 7
-9 9 -84 12 -265 12 l-253 0 0 23 c0 12 5 39 11 60 6 22 7 43 2 50 -5 7 -4
420 3 932 7 506 13 982 13 1059 l1 139 190 -8 190 -7 0 101 0 101 -1953 0
-1953 0 -30 31 c-37 40 -98 68 -146 69 -20 0 -88 -20 -152 -45 -221 -87 -240
-69 -195 185 42 238 16 463 -63 548 -39 41 -74 32 -234 -60 -116 -67 -194 -89
-244 -68 -41 17 -45 43 -25 167 31 191 9 245 -130 319 -138 74 -332 124 -479
124 -101 0 -108 -6 -131 -116 -31 -146 -14 -357 36 -457 41 -81 69 -102 198
-142 44 -14 94 -37 110 -51 70 -58 48 -101 -95 -186 -62 -37 -124 -82 -148
-109 l-41 -46 -135 -5 c-147 -6 -267 -29 -302 -58 -18 -14 -22 -27 -21 -71 3
-98 84 -305 146 -371 25 -27 28 -28 141 -28 171 0 175 -5 91 -102 -31 -35 -58
-73 -61 -86 -8 -31 39 -177 75 -235 44 -69 59 -73 205 -57 117 12 146 10 146
-9 0 -5 -25 -39 -55 -77 -31 -38 -55 -79 -55 -92 0 -83 137 -193 355 -284 49
-20 82 -38 73 -38 -21 0 -39 -40 -74 -159 -77 -266 -48 -486 107 -798 l80
-163 387 0 387 0 32 58 33 57 0 -57 0 -58 35 0 35 0 0 129 c0 114 3 137 26
197 90 240 92 486 5 715 -18 45 -21 77 -21 194 0 137 1 142 35 230 89 224 134
431 143 655 l7 155 361 1 362 2 6 -162 c3 -88 8 -417 11 -731 3 -313 8 -753
12 -977 l6 -408 32 0 32 0 8 668 c4 367 11 878 14 1137 l6 470 734 3 c404 1
738 -1 742 -5 4 -5 13 -498 19 -1098 6 -600 13 -1109 16 -1132 5 -39 8 -43 33
-43 l28 0 7 327 c3 181 8 562 11 848 3 286 8 652 11 813 l6 292 448 0 447 0 6
-387 c4 -214 10 -722 14 -1130 l6 -743 -51 0 c-63 0 -82 -7 -82 -31 0 -18 14
-19 365 -19 320 0 364 -2 359 -15 -5 -12 2 -15 30 -15 29 0 39 5 48 25 10 22
13 23 20 10 8 -13 53 -15 357 -15 293 0 350 2 361 15 6 8 9 19 5 25 -4 6 -127
10 -366 10 -342 0 -359 1 -359 18 0 11 8 26 19 36 10 9 33 52 52 96 l34 80
113 -4 c103 -4 114 -6 131 -28 l19 -23 -5 28 c-5 26 -4 27 38 27 24 0 67 3 95
6 48 6 50 8 46 32 -3 17 -1 23 7 18 6 -4 11 -14 11 -23 0 -12 11 -14 53 -11
l52 3 3 -37 c2 -21 8 -38 13 -38 6 0 8 17 4 44 l-7 43 44 7 c79 12 77 -13 24
358 -25 183 -47 336 -46 341 0 4 161 6 357 5 l357 -3 212 -520 213 -520 62 -3
c47 -2 60 0 57 10 -8 20 -288 1024 -288 1032 0 3 8 6 18 6 13 0 27 29 61 123
24 67 79 222 123 344 l80 222 32 -32 c18 -18 48 -41 66 -52 26 -15 38 -33 53
-78 18 -55 57 -106 105 -137 17 -11 25 -31 34 -80 6 -36 17 -75 25 -87 22 -33
79 -56 123 -49 l37 6 32 -93 c17 -50 31 -95 31 -99 0 -4 -71 -9 -157 -10
l-158 -3 -3 -92 -3 -93 35 0 c32 0 36 -3 41 -32 6 -38 105 -716 105 -723 0 -3
145 -5 323 -5 l323 0 55 378 54 377 38 3 38 3 -3 92 -3 92 -168 3 -168 2 7 23
c12 38 84 177 121 234 27 39 41 52 52 47 149 -64 209 -42 410 151 115 111 151
169 151 245 0 61 -34 120 -84 144 -57 28 -94 12 -200 -83 -48 -43 -116 -94
-149 -111 -119 -63 -148 -109 -155 -244 -4 -86 -6 -92 -51 -161 -26 -39 -65
-110 -86 -158 l-39 -87 -59 0 -59 0 6 31 c3 17 6 65 6 105 l0 74 49 24 c82 42
132 119 146 223 10 77 -2 127 -40 173 l-34 41 15 47 c40 123 27 193 -48 263
-47 45 -49 48 -57 121 -5 42 -16 89 -26 106 -53 89 -194 80 -225 -14 -17 -52
-7 -138 25 -207 22 -47 26 -67 21 -105 -19 -161 -19 -187 3 -237 23 -53 26
-103 10 -189 -19 -104 35 -213 115 -234 34 -9 32 3 28 -147 l-2 -75 -90 0
c-56 0 -90 4 -90 10 0 6 -16 54 -36 106 -33 90 -34 97 -19 114 26 28 44 89 45
147 0 89 -31 141 -107 174 -36 15 -43 24 -53 61 -6 24 -14 52 -17 63 -17 57
-67 95 -124 95 -24 0 -46 12 -89 49 -31 27 -66 51 -77 53 -20 3 -13 27 123
403 79 220 147 417 150 437 6 33 3 41 -25 69 -30 29 -36 31 -81 26 -59 -7 -93
-24 -164 -81 l-54 -44 -18 41 c-40 91 -160 254 -259 352 -171 172 -283 238
-476 279 l-27 6 19 62 c13 41 31 73 54 95 19 19 35 40 35 48 0 8 16 31 35 52
100 108 105 306 10 381 -28 23 -86 45 -103 40 -6 -2 -20 13 -30 32 -31 56 -99
92 -185 97 -63 4 -78 2 -120 -21z m241 -320 c17 -46 77 -99 103 -91 71 23 91
-81 20 -106 -21 -7 -30 -19 -35 -41 -8 -39 -68 -113 -108 -134 -32 -17 -58
-13 -58 9 0 34 -44 54 -127 60 -74 6 -84 4 -116 -18 l-35 -23 -13 51 c-14 56
-14 200 -1 257 7 32 10 35 37 30 69 -12 201 -3 255 17 30 11 57 21 60 22 4 0
12 -14 18 -33z m-169 -380 c45 12 69 -1 57 -32 -5 -13 -15 -15 -54 -10 -26 4
-69 7 -97 9 -40 2 -50 6 -53 21 -2 11 3 25 12 32 14 10 24 8 56 -9 33 -19 44
-20 79 -11z m180 -194 c-6 -20 -25 -63 -41 -96 l-29 -58 -22 19 c-12 10 -41
35 -63 55 -43 37 -43 58 1 58 32 0 121 46 141 73 17 23 19 23 22 6 2 -11 -2
-36 -9 -57z m-282 -16 c23 -7 45 -15 49 -18 3 -4 -27 -23 -66 -43 l-73 -37 6
39 c4 21 7 49 7 62 0 18 4 22 18 16 9 -5 36 -13 59 -19z m99 -67 l22 -20 -21
-38 -20 -37 32 -239 c41 -302 48 -286 -118 -287 -96 0 -115 2 -123 16 -7 12
13 87 68 261 45 144 74 254 71 268 -3 12 -8 31 -12 42 -4 15 1 24 22 37 38 22
53 22 79 -3z m1284 -399 c11 -11 20 -31 20 -44 0 -39 -298 -858 -321 -882 -12
-13 -21 -38 -23 -65 -3 -35 -118 -373 -238 -696 l-19 -53 -495 0 c-387 0 -496
3 -499 12 -12 35 -50 388 -42 388 5 0 11 -9 14 -19 7 -27 14 -29 162 -42 155
-13 291 -2 408 36 53 17 101 25 150 25 59 0 74 3 82 18 5 9 62 154 126 322 65
168 122 309 126 314 5 5 41 18 81 28 140 35 193 77 220 172 18 63 13 210 -10
296 l-20 75 41 43 c80 82 193 116 237 72z m-8144 -186 c17 -86 57 -165 115
-228 57 -62 97 -81 251 -115 116 -27 148 -48 148 -98 0 -38 -8 -47 -143 -166
-84 -74 -98 -109 -72 -191 51 -162 264 -401 493 -554 l123 -82 -126 0 c-119 0
-130 2 -213 34 -237 91 -392 205 -392 286 0 16 18 48 50 85 57 68 67 110 26
121 -13 3 -58 1 -100 -5 -43 -6 -99 -11 -126 -11 -42 0 -52 4 -77 33 -34 39
-81 150 -89 210 -6 40 -3 46 56 116 95 114 79 133 -107 129 -89 -1 -105 1
-124 18 -31 28 -116 209 -134 284 -28 122 -19 139 82 165 67 17 221 33 297 31
l49 -1 13 -61z m7410 -73 c-4 -6 -18 -11 -32 -11 -22 0 -24 4 -24 42 l0 43 31
-32 c17 -17 28 -36 25 -42z m-476 3 c69 -8 153 -20 187 -25 l62 -11 -5 -41
c-2 -23 -9 -80 -14 -126 -5 -46 -12 -87 -15 -90 -3 -2 -79 32 -168 77 -150 77
-168 83 -239 89 -75 6 -100 19 -58 30 11 3 20 10 20 16 0 6 -25 8 -70 3 -64
-6 -70 -5 -70 12 0 35 55 70 129 82 49 8 51 8 241 -16z m-1290 -109 l0 -85
-1655 0 -1655 0 0 85 0 85 1655 0 1655 0 0 -85z m-3007 -102 c3 -5 -1 -467 -9
-1028 -7 -561 -13 -1068 -14 -1127 0 -85 -3 -108 -14 -108 -17 0 -23 208 -31
1010 -3 300 -8 706 -11 903 l-7 357 41 0 c22 0 43 -3 45 -7z m2622 -645 c-19
-1632 -19 -1613 -35 -1613 -16 0 -19 105 -35 1568 l-8 697 43 0 43 0 -8 -652z
m2313 423 c-2 -5 -57 -148 -123 -320 l-120 -311 -52 0 -52 0 44 44 c93 93 131
216 121 396 -4 63 -9 133 -12 155 l-6 40 102 2 c56 1 100 -1 98 -6z m-506
-122 c6 -63 35 -105 72 -102 30 2 32 -4 9 -29 -19 -21 -33 -23 -33 -4 0 8 -7
17 -15 20 -24 9 -55 85 -55 134 0 59 16 45 22 -19z m154 34 c-10 -10 -19 5
-10 18 6 11 8 11 12 0 2 -7 1 -15 -2 -18z m-18 -73 c-5 -17 -14 -28 -18 -25
-5 3 -3 18 3 34 14 39 29 30 15 -9z m-123 -129 c-6 -5 -23 -12 -40 -16 -29 -6
-29 -6 -11 9 21 17 67 23 51 7z m-100 -30 c-15 -13 -65 -23 -65 -12 0 12 18
19 50 20 14 1 20 -3 15 -8z m-105 -21 c0 -11 -48 -25 -57 -16 -3 3 5 10 18 15
32 13 39 13 39 1z m-100 -30 c0 -5 -6 -10 -14 -10 -8 0 -21 -3 -30 -6 -9 -3
-16 -1 -16 4 0 10 19 18 48 21 6 0 12 -3 12 -9z m-105 -29 c-16 -14 -55 -23
-55 -13 0 12 17 20 45 21 11 1 15 -3 10 -8z m-100 -30 c-16 -14 -55 -23 -55
-13 0 12 17 20 45 21 11 1 15 -3 10 -8z m-95 -29 c0 -8 -43 -32 -55 -32 -14 0
-2 18 18 28 28 13 37 14 37 4z m-94 -54 c-3 -7 -9 -21 -12 -30 -4 -10 -10 -18
-15 -18 -13 0 -11 34 3 48 16 16 31 15 24 0z m154 -104 c0 -8 -4 -14 -10 -14
-5 0 -10 9 -10 21 0 11 5 17 10 14 6 -3 10 -13 10 -21z m-170 -19 c0 -13 -4
-27 -10 -30 -6 -4 -10 8 -10 30 0 22 4 34 10 30 6 -3 10 -17 10 -30z m-454
-53 c-11 -10 -14 3 -8 33 l7 30 3 -28 c2 -16 1 -31 -2 -35z m454 -52 c0 -16
-4 -30 -10 -30 -5 0 -10 14 -10 30 0 17 5 30 10 30 6 0 10 -13 10 -30z m-461
-12 c0 -7 -4 -22 -9 -33 -7 -17 -9 -15 -9 13 -1 17 4 32 9 32 6 0 10 -6 9 -12z
m460 -95 c0 -31 -2 -34 -9 -18 -12 28 -12 55 0 55 6 0 10 -17 9 -37z m-488
-46 c-8 -8 -11 -4 -11 14 0 33 14 47 18 19 2 -12 -1 -27 -7 -33z m-4341 -12
c0 -18 -5 -25 -20 -25 -17 0 -18 3 -8 25 6 14 15 25 20 25 4 0 8 -11 8 -25z
m4840 -45 c0 -16 -4 -30 -10 -30 -5 0 -10 14 -10 30 0 17 5 30 10 30 6 0 10
-13 10 -30z m-521 -54 c-9 -8 -10 -5 -5 14 3 14 6 32 7 40 1 8 4 2 6 -14 3
-16 -1 -34 -8 -40z m-4321 2 l3 -48 -255 0 c-164 0 -256 -4 -256 -10 0 -6 91
-10 254 -10 l254 0 4 -412 5 -413 -37 -70 -36 -70 -375 0 -374 0 -67 130
c-174 339 -200 600 -88 898 l22 57 471 -2 472 -3 3 -47z m154 -260 c15 -124 0
-260 -41 -385 l-29 -88 -1 110 c-1 61 2 223 6 360 l7 250 23 -74 c13 -41 29
-119 35 -173z m4689 179 c-8 -8 -11 0 -10 29 1 39 1 39 11 11 7 -21 7 -32 -1
-40z m-521 26 c0 -19 -13 -53 -19 -53 -4 0 -6 14 -3 30 2 17 8 30 13 30 5 0 9
-3 9 -7z m3180 -118 l0 -75 -490 0 -490 0 0 68 c0 38 3 72 7 75 3 4 224 7 490
7 l483 0 0 -75z m-2650 14 c0 -17 -4 -28 -10 -24 -5 3 -10 17 -10 31 0 13 5
24 10 24 6 0 10 -14 10 -31z m-559 -46 c-9 -15 -10 -13 -11 13 0 17 3 34 8 38
11 12 14 -32 3 -51z m569 -59 c0 -21 -4 -33 -10 -29 -5 3 -10 19 -10 36 0 16
5 29 10 29 6 0 10 -16 10 -36z m-584 -52 c-13 -12 -17 8 -10 40 l9 33 3 -33
c2 -19 1 -36 -2 -40z m3149 16 c-3 -18 -26 -172 -50 -343 -25 -171 -47 -325
-50 -343 l-6 -32 -307 2 -306 3 -53 355 c-28 195 -52 363 -52 373 -1 16 25 17
414 17 l416 0 -6 -32z m-2555 -68 c0 -16 -4 -30 -10 -30 -5 0 -10 14 -10 30 0
17 5 30 10 30 6 0 10 -13 10 -30z m-604 -6 c-3 -9 -6 -22 -6 -30 0 -8 -4 -14
-8 -14 -5 0 -7 14 -4 30 2 17 9 30 14 30 6 0 7 -7 4 -16z m605 -127 c-8 -8
-11 0 -10 29 1 39 1 39 11 11 7 -21 7 -32 -1 -40z m-630 -14 c-9 -15 -10 -13
-11 13 0 17 3 34 8 38 11 12 14 -32 3 -51z m638 -65 c0 -28 -2 -30 -9 -13 -12
28 -12 45 0 45 6 0 10 -15 9 -32z m-653 -46 c-13 -12 -17 8 -10 40 l9 33 3
-33 c2 -19 1 -36 -2 -40z m664 -58 c0 -21 -4 -33 -10 -29 -5 3 -10 19 -10 36
0 16 5 29 10 29 6 0 10 -16 10 -36z"/>
<path d="M7238 3754 c-16 -8 -28 -19 -28 -24 0 -5 12 -2 28 6 15 7 40 14 55
14 16 0 26 4 22 10 -9 14 -46 12 -77 -6z"/>
<path d="M7450 3760 c0 -5 8 -10 18 -10 9 0 34 -9 54 -20 24 -13 35 -15 32 -7
-11 31 -104 63 -104 37z"/>
<path d="M7681 3724 c0 -11 3 -14 6 -6 3 7 2 16 -1 19 -3 4 -6 -2 -5 -13z"/>
<path d="M7250 3700 c-21 -13 -10 -18 27 -13 18 3 30 9 27 14 -7 12 -35 11
-54 -1z"/>
<path d="M7447 3693 c-15 -14 -6 -23 13 -13 15 8 26 7 43 -1 20 -11 21 -11 8
4 -13 17 -52 23 -64 10z"/>
<path d="M7357 3665 c-3 -11 -12 -28 -19 -38 -11 -14 -10 -19 2 -27 23 -15 34
-12 20 5 -10 12 -10 18 0 30 6 8 10 22 8 32 -3 16 -4 16 -11 -2z"/>
<path d="M6514 2775 c-4 -9 -26 -27 -50 -41 -47 -28 -58 -48 -48 -88 10 -39
50 -66 99 -66 103 0 145 110 73 188 -25 25 -66 29 -74 7z m71 -31 c9 -15 17
-42 18 -61 2 -73 -96 -111 -148 -58 -36 35 -32 60 13 89 20 13 43 31 51 40 20
24 46 20 66 -10z"/>
<path d="M3152 2694 c-54 -37 -7 -113 53 -86 33 15 35 64 3 86 -12 9 -25 16
-28 16 -3 0 -16 -7 -28 -16z"/>
<path d="M6397 2332 c-20 -22 -22 -55 -4 -70 15 -12 148 -31 202 -29 37 2 40
4 43 35 2 24 -1 34 -15 38 -10 3 -27 10 -39 16 -12 5 -30 8 -41 6 -11 -1 -28
3 -37 11 -13 11 -22 12 -35 4 -11 -7 -23 -8 -32 -2 -20 12 -24 11 -42 -9z m43
-38 c0 -17 -5 -24 -20 -24 -22 0 -27 29 -8 48 16 16 28 6 28 -24z m60 -18 c-5
-15 -16 -26 -23 -24 -17 6 -21 46 -6 64 10 13 14 13 26 1 11 -10 11 -20 3 -41z
m70 5 c0 -30 -18 -45 -40 -31 -20 12 -4 60 20 60 15 0 20 -7 20 -29z m53 3 c9
-10 -4 -34 -19 -34 -8 0 -14 6 -14 13 0 22 19 35 33 21z"/>
<path d="M5815 250 c-3 -5 3 -10 13 -10 11 0 25 -7 32 -15 7 -8 17 -12 22 -9
13 8 -21 44 -43 44 -10 0 -21 -4 -24 -10z"/>
<path d="M6642 252 c-7 -2 4 -12 25 -23 46 -23 46 -23 34 0 -11 20 -38 31 -59
23z"/>
<path d="M6550 220 c0 -5 8 -10 18 -10 10 0 23 -5 30 -12 17 -17 28 -2 12 17
-14 17 -60 21 -60 5z"/>
</g>
</svg>
